<svg width="29" height="24" viewBox="0 0 29 24" fill="none" xmlns="http://www.w3.org/2000/svg">
<path d="M6.0577 11.9204C5.94075 11.8028 5.80169 11.7094 5.64852 11.6457C5.49536 11.582 5.3311 11.5492 5.16521 11.5492C4.99932 11.5492 4.83507 11.582 4.6819 11.6457C4.52873 11.7094 4.38968 11.8028 4.27272 11.9204L3.26772 12.9204C3.15004 13.0379 3.05668 13.1774 2.99298 13.331C2.92927 13.4845 2.89648 13.6492 2.89648 13.8154C2.89648 13.9817 2.92927 14.1463 2.99298 14.2999C3.05668 14.4535 3.15004 14.593 3.26772 14.7104L8.4577 19.9004C8.69546 20.1371 9.01726 20.2699 9.3527 20.2699C9.68814 20.2699 10.0099 20.1371 10.2477 19.9004L11.2477 18.8954C11.3654 18.7785 11.4587 18.6394 11.5224 18.4863C11.5861 18.3331 11.6189 18.1688 11.6189 18.0029C11.6189 17.8371 11.5861 17.6728 11.5224 17.5196C11.4587 17.3665 11.3654 17.2274 11.2477 17.1104L6.0577 11.9204Z" fill="#32ACFC"/>
<path d="M3.3275 16.1854L0.472497 19.0404C0.169826 19.3456 0 19.7581 0 20.1879C0 20.6178 0.169826 21.0302 0.472497 21.3354L1.7575 22.6154C1.90783 22.7658 2.08633 22.8852 2.28279 22.9666C2.47925 23.048 2.68983 23.0899 2.9025 23.0899C3.11516 23.0899 3.32574 23.048 3.5222 22.9666C3.71867 22.8852 3.89717 22.7658 4.0475 22.6154L6.9025 19.7604C6.43837 19.2897 3.3275 16.1854 3.3275 16.1854Z" fill="#32ACFC"/>
<path d="M24.8271 12.9204L23.8221 11.9204C23.7047 11.8028 23.5652 11.7094 23.4116 11.6457C23.258 11.582 23.0934 11.5492 22.9271 11.5492C22.7608 11.5492 22.5962 11.582 22.4426 11.6457C22.2891 11.7094 22.1496 11.8028 22.0321 11.9204L16.8421 17.1104C16.6067 17.3478 16.4746 17.6686 16.4746 18.0029C16.4746 18.3373 16.6067 18.658 16.8421 18.8954L17.8471 19.9004C18.0853 20.1362 18.407 20.2684 18.7421 20.2684C19.0773 20.2684 19.3989 20.1362 19.6371 19.9004L24.8271 14.7104C25.0626 14.4721 25.1946 14.1505 25.1946 13.8154C25.1946 13.4804 25.0626 13.1588 24.8271 12.9204Z" fill="#32ACFC"/>
<path d="M5.85227 7.34543L16.7073 15.8304L17.4173 15.1204C17.942 14.598 20.2826 12.2535 20.7573 11.7804L12.2723 0.930433C12.0412 0.636544 11.7456 0.399794 11.4083 0.238521C11.071 0.0772486 10.7011 -0.00421768 10.3273 0.000432601L6.41727 0.0454327C6.03469 0.0503045 5.66922 0.204792 5.39913 0.475811C5.12905 0.74683 4.97582 1.11283 4.97227 1.49543L4.92727 5.40543C4.91953 5.77853 4.99914 6.14826 5.15975 6.48511C5.32036 6.82195 5.55751 7.11657 5.85227 7.34543Z" fill="#32ACFC"/>
<path d="M8.30703 10.5354L7.33203 11.7754C7.79547 12.2384 11.387 15.8304 11.387 15.8304L13.232 14.3854C12.7216 13.9845 8.30703 10.5354 8.30703 10.5354Z" fill="#32ACFC"/>
<path d="M19.9577 9.13044L22.2427 7.34544C22.5373 7.11524 22.7742 6.81965 22.9347 6.48207C23.0952 6.14449 23.175 5.77418 23.1677 5.40044L23.1227 1.49044C23.1158 1.10763 22.96 0.742578 22.6884 0.472781C22.4167 0.202984 22.0506 0.0496897 21.6677 0.0454431L17.7627 0.000442978C17.3897 -0.00672324 17.0202 0.0731455 16.6834 0.233711C16.3467 0.394276 16.052 0.631118 15.8227 0.925443L14.6777 2.38544C14.9665 2.73618 19.9577 9.13044 19.9577 9.13044Z" fill="#32ACFC"/>
<path d="M27.5423 19.1205L24.6873 16.2605C24.2191 16.7292 21.1123 19.8405 21.1123 19.8405L23.9673 22.6955C24.1176 22.8461 24.296 22.9655 24.4925 23.047C24.689 23.1285 24.8996 23.1705 25.1123 23.1705C25.325 23.1705 25.5356 23.1285 25.7321 23.047C25.9286 22.9655 26.1071 22.8461 26.2573 22.6955L27.5423 21.4105C27.8443 21.1059 28.0137 20.6944 28.0137 20.2655C28.0137 19.8366 27.8443 19.4251 27.5423 19.1205Z" fill="#32ACFC"/>
</svg>
