<svg width="24" height="24" viewBox="0 0 24 24" fill="none" xmlns="http://www.w3.org/2000/svg">
<path d="M18.9375 21.0579C18.9375 21.2568 18.8584 21.4475 18.7178 21.5882C18.5771 21.7288 18.3864 21.8079 18.1875 21.8079H5.83789C5.42381 21.8078 5.08789 21.472 5.08789 21.0579V18.6302C5.08801 18.2664 5.34972 17.9552 5.70801 17.8919L6.50098 17.7513L5.19824 15.6234C5.16373 15.5669 5.13675 15.5062 5.11816 15.4427L3.47656 9.82843C3.06758 9.81287 2.68322 9.6955 2.35156 9.49738C1.66184 9.08525 1.19643 8.32953 1.19629 7.46417C1.19629 6.15474 2.25997 5.09503 3.56836 5.09503C4.87664 5.09527 5.93945 6.15499 5.93945 7.46417C5.93939 7.84874 5.84626 8.2126 5.68262 8.53448L7.58594 10.1839L8.05859 6.36261C7.71785 6.19961 7.42159 5.95933 7.19531 5.66339C6.89089 5.26515 6.70996 4.76598 6.70996 4.22687C6.71007 2.91765 7.7729 1.8589 9.08105 1.8587C10.3894 1.8587 11.453 2.91752 11.4531 4.22687C11.4531 4.5598 11.3834 4.87889 11.2578 5.16827C11.1118 5.50468 10.8889 5.79809 10.6133 6.03156L12 9.16827L13.3867 6.03156C13.1113 5.79809 12.8881 5.50462 12.7422 5.16827C12.6166 4.87889 12.5479 4.5598 12.5479 4.22687C12.548 2.91763 13.6108 1.85887 14.9189 1.8587C16.2273 1.8587 17.2909 2.91752 17.291 4.22687C17.291 4.76608 17.1092 5.26512 16.8047 5.66339C16.5781 5.95967 16.2817 6.19963 15.9404 6.36261L16.4141 10.1829L18.3174 8.53351C18.1541 8.21184 18.0616 7.84822 18.0615 7.46417C18.0615 6.15479 19.1243 5.09512 20.4326 5.09503C21.741 5.09503 22.8047 6.15474 22.8047 7.46417C22.8045 8.32953 22.3391 9.08525 21.6494 9.49738C21.3173 9.69584 20.9321 9.81313 20.5225 9.82843L18.8828 15.4427C18.8642 15.5063 18.8364 15.5668 18.8018 15.6234L17.5 17.7484L18.3164 17.8919C18.6752 17.9547 18.9374 18.266 18.9375 18.6302V21.0579Z" stroke="#9DA1A3" stroke-width="1.5" stroke-linejoin="round"/>
</svg>
