<svg width="24" height="24" viewBox="0 0 24 24" fill="none" xmlns="http://www.w3.org/2000/svg">
<path d="M19.1094 20.9997C19.1094 21.1985 19.0302 21.3893 18.8896 21.53C18.749 21.6706 18.5583 21.7497 18.3594 21.7497H5.66699C5.25278 21.7497 4.91699 21.4139 4.91699 20.9997V18.4997C4.91715 18.1361 5.17809 17.8248 5.53613 17.7614L8.0957 17.3083C7.82065 17.0983 7.55272 16.8555 7.30566 16.5759C6.53258 15.7007 5.97467 14.4879 5.97461 12.8913C5.97461 10.4686 7.25341 8.43234 8.46289 7.10028C8.80738 6.72089 9.1564 6.39254 9.47949 6.11688C9.46944 6.09783 9.45788 6.07955 9.44824 6.06024C9.25582 5.67462 9.14746 5.23968 9.14746 4.78192C9.14754 3.19963 10.4304 1.91693 12.0127 1.91669C13.5952 1.91669 14.8788 3.19948 14.8789 4.78192C14.8789 5.41514 14.672 6.00246 14.3232 6.47723C14.3071 6.49921 14.2899 6.52062 14.2715 6.54071C14.1681 6.65326 14.0683 6.76911 13.9727 6.88739C13.1242 7.93619 12.571 9.20799 12.2939 10.5739C12.4902 9.97529 12.7531 9.38885 13.0586 8.86102C13.3752 8.314 13.7514 7.80423 14.1729 7.3952C14.235 7.33487 14.2986 7.27664 14.3633 7.2204C14.4207 7.17048 14.4796 7.12229 14.5391 7.07587L14.6621 6.99677C14.9619 6.8451 15.3352 6.91079 15.5645 7.17255C15.8142 7.45795 16.056 7.76511 16.2822 8.09149C16.47 8.36247 16.6476 8.64769 16.8115 8.94501C17.443 10.0901 17.875 11.4325 17.875 12.8913C17.8749 14.4708 17.3293 15.6751 16.5684 16.5485C16.3231 16.83 16.0561 17.0741 15.7822 17.2858L18.4893 17.7614C18.8477 17.8245 19.1092 18.1357 19.1094 18.4997V20.9997Z" stroke="#9DA1A3" stroke-width="1.5" stroke-linejoin="round"/>
</svg>
