<svg width="16" height="16" viewBox="0 0 16 16" fill="none" xmlns="http://www.w3.org/2000/svg">
<path d="M2.1332 12.2667C2.1332 12.856 2.61054 13.3333 3.19987 13.3333H12.7999C13.3892 13.3333 13.8665 12.856 13.8665 12.2667V11.2H2.1332V12.2667Z" fill="white"/>
<path d="M7.24562 1.37907C7.44566 1.17903 7.71697 1.06665 7.99987 1.06665C8.28277 1.06665 8.55408 1.17903 8.75412 1.37907C8.95415 1.57911 9.06653 1.85042 9.06653 2.13332C9.06653 2.41621 8.95415 2.68753 8.75412 2.88756C8.67901 2.96267 8.59386 3.02542 8.50182 3.0745L10.6108 7.02875L13.4804 5.34071C13.3848 5.17819 13.3332 4.99175 13.3332 4.79998C13.3332 4.51709 13.4456 4.24578 13.6456 4.04574C13.8457 3.8457 14.117 3.73332 14.3999 3.73332C14.6828 3.73332 14.9541 3.8457 15.1541 4.04574C15.3542 4.24578 15.4665 4.51709 15.4665 4.79998C15.4665 5.08288 15.3542 5.35419 15.1541 5.55423C14.9541 5.75427 14.6828 5.86665 14.3999 5.86665C14.3642 5.86665 14.3286 5.86486 14.2934 5.86133L13.8662 10.1334H2.13281L1.70561 5.8614C1.67063 5.86488 1.63534 5.86665 1.59987 5.86665C1.31697 5.86665 1.04566 5.75427 0.845623 5.55423C0.645584 5.35419 0.533203 5.08288 0.533203 4.79998C0.533203 4.51709 0.645584 4.24578 0.845623 4.04574C1.04566 3.8457 1.31697 3.73332 1.59987 3.73332C1.88277 3.73332 2.15408 3.8457 2.35412 4.04574C2.55416 4.24578 2.66654 4.51709 2.66654 4.79998C2.66654 4.99187 2.61483 5.17843 2.51914 5.34103L5.38881 7.02907L7.49792 3.0745C7.40588 3.02542 7.32073 2.96267 7.24562 2.88756C7.04558 2.68753 6.9332 2.41621 6.9332 2.13332C6.9332 1.85042 7.04558 1.57911 7.24562 1.37907Z" fill="white"/>
</svg>
