<svg width="11" height="10" viewBox="0 0 11 10" fill="none" xmlns="http://www.w3.org/2000/svg">
<path d="M11 -9.53674e-07H9V6H11V-9.53674e-07ZM-9.53674e-07 5.5C-9.53674e-07 6.0525 0.447498 6.5 0.999999 6.5H4.1575L3.68 8.785C3.67 8.835 3.6625 8.8875 3.6625 8.9425C3.6625 9.15 3.7475 9.3375 3.8825 9.4725L4.415 10L7.7075 6.7075C7.8875 6.525 8 6.275 8 6V0.999999C8 0.447499 7.5525 -9.53674e-07 7 -9.53674e-07H2.5C2.085 -9.53674e-07 1.73 0.252499 1.58 0.609999L0.0724993 4.135C0.0274992 4.25 -9.53674e-07 4.3725 -9.53674e-07 4.5V5.4575L0.00499916 5.4625L-9.53674e-07 5.5Z" fill="#DC2D2D"/>
</svg>
