<svg width="29" height="35" viewBox="0 0 29 35" fill="none" xmlns="http://www.w3.org/2000/svg">
<path d="M1 1H27.4M1 33.2667H27.4" stroke="#1C92E0" stroke-width="2" stroke-miterlimit="10" stroke-linecap="round" stroke-linejoin="round"/>
<path d="M20.0673 28.8667H8.33398C8.33398 25.6268 10.9608 23 14.2007 23C17.4405 23 20.0673 25.6268 20.0673 28.8667Z" fill="#1C92E0"/>
<path d="M3.93359 1C3.93359 1.4972 3.93359 4.9028 3.93359 5.4C3.93359 12.7333 11.2669 17.1333 11.2669 17.1333C11.2669 17.1333 3.93359 21.5333 3.93359 28.8667C3.93359 29.3639 3.93359 32.7695 3.93359 33.2667M24.4669 33.2667C24.4669 32.7695 24.4669 29.3639 24.4669 28.8667C24.4669 21.5333 17.1336 17.1333 17.1336 17.1333C17.1336 17.1333 24.4669 12.7333 24.4669 5.4C24.4669 4.9028 24.4669 1.4972 24.4669 1" stroke="#1C92E0" stroke-width="2" stroke-miterlimit="10" stroke-linecap="round" stroke-linejoin="round"/>
<path d="M3.93359 1H24.4669V6.86667H3.93359V1ZM3.93359 27.4H24.4669V33.2667H3.93359V27.4Z" fill="#1C92E0"/>
</svg>
