<svg width="16" height="16" viewBox="0 0 16 16" fill="none" xmlns="http://www.w3.org/2000/svg">
<g clip-path="url(#clip0_837_35718)">
<path d="M16 3.69226H0V4.92289H16V3.69226Z" fill="#F5F5F5"/>
<path d="M15.1641 1.23083H0.835094C0.531719 1.58671 0.29825 2.00399 0.15625 2.46162H15.8429C15.7009 2.00399 15.4675 1.58671 15.1641 1.23083Z" fill="#F5F5F5"/>
<path d="M16 6.15381H0V7.38443H16V6.15381Z" fill="#F5F5F5"/>
<path d="M16 8.61536H0V9.84598H16V8.61536Z" fill="#F5F5F5"/>
<path d="M16 11.0769H0V12.3075H16V11.0769Z" fill="#F5F5F5"/>
<path d="M15.8429 13.5386H0.15625C0.298219 13.9962 0.531719 14.4134 0.835094 14.7693H15.1641C15.4675 14.4134 15.7009 13.9962 15.8429 13.5386Z" fill="#F5F5F5"/>
<path d="M12.5004 0H3.50044C2.43331 0 1.47791 0.477719 0.835938 1.23078H15.1649C14.523 0.477719 13.5676 0 12.5004 0Z" fill="#FF4B55"/>
<path d="M16 4.9231H0V6.15372H16V4.9231Z" fill="#FF4B55"/>
<path d="M16 3.49999C16 3.13839 15.9452 2.78964 15.8433 2.46155H0.156656C0.0548438 2.78964 0 3.13839 0 3.49999V3.6923H16V3.49999Z" fill="#FF4B55"/>
<path d="M16 7.38464H0V8.61527H16V7.38464Z" fill="#FF4B55"/>
<path d="M16 12.4999V12.3076H0V12.4999C0 12.8615 0.0548438 13.2103 0.156656 13.5384H15.8433C15.9452 13.2103 16 12.8615 16 12.4999Z" fill="#FF4B55"/>
<path d="M15.1649 14.7693H0.835938C1.47791 15.5223 2.43331 16.0001 3.50044 16.0001H12.5004C13.5676 16.0001 14.523 15.5223 15.1649 14.7693Z" fill="#FF4B55"/>
<path d="M16 9.84619H0V11.0768H16V9.84619Z" fill="#FF4B55"/>
<path d="M8.61537 0H3.5C1.567 0 0 1.567 0 3.5V8.61537H8.61537V0Z" fill="#41479B"/>
<path d="M0.929134 1.34571C0.920946 1.37162 0.950415 1.39306 0.97254 1.37724L1.14326 1.25524L1.31398 1.37724C1.33607 1.39306 1.36557 1.37162 1.35738 1.34571L1.2941 1.14565L1.46292 1.02099C1.48476 1.00484 1.47351 0.970181 1.44632 0.969962L1.23651 0.968337L1.2007 0.860962C1.11076 0.939368 1.02498 1.02237 0.943509 1.10946L0.992478 1.14565L0.929134 1.34571Z" fill="#F5F5F5"/>
<path d="M1.17056 2.42986L1.23693 2.62892L1.44675 2.63055C1.4739 2.63076 1.48518 2.66542 1.46334 2.68158L1.29453 2.80623L1.35781 3.0063C1.366 3.0322 1.33653 3.05361 1.3144 3.03783L1.14368 2.9158L0.972965 3.03783C0.950872 3.05364 0.921372 3.0322 0.929559 3.0063L0.99284 2.80623L0.824028 2.68158C0.802184 2.66545 0.813434 2.63076 0.84059 2.63055L1.0504 2.62892L1.11678 2.42986C1.1255 2.40408 1.16197 2.40408 1.17056 2.42986Z" fill="#F5F5F5"/>
<path d="M1.17056 4.27153L1.23693 4.4706L1.44675 4.47222C1.4739 4.47244 1.48518 4.5071 1.46334 4.52325L1.29453 4.64791L1.35781 4.84797C1.366 4.87388 1.33653 4.89528 1.3144 4.8795L1.14368 4.7575L0.972965 4.8795C0.950872 4.89528 0.921372 4.87388 0.929559 4.84797L0.99284 4.64791L0.824028 4.52325C0.802184 4.50713 0.813434 4.47244 0.84059 4.47222L1.0504 4.4706L1.11678 4.27153C1.1255 4.24575 1.16197 4.24575 1.17056 4.27153Z" fill="#F5F5F5"/>
<path d="M1.17056 5.96355L1.23693 6.16261L1.44675 6.16424C1.4739 6.16446 1.48518 6.19911 1.46334 6.21527L1.29453 6.33993L1.35781 6.53999C1.366 6.56589 1.33653 6.5873 1.3144 6.57152L1.14368 6.44949L0.972965 6.57152C0.950872 6.5873 0.921372 6.56589 0.929559 6.53999L0.99284 6.33993L0.824028 6.21527C0.802184 6.19914 0.813434 6.16446 0.84059 6.16424L1.0504 6.16261L1.11678 5.96355C1.1255 5.93777 1.16197 5.93777 1.17056 5.96355Z" fill="#F5F5F5"/>
<path d="M1.17056 7.50334L1.23693 7.70241L1.44675 7.70403C1.4739 7.70425 1.48518 7.73891 1.46334 7.75506L1.29453 7.87972L1.35781 8.07978C1.366 8.10569 1.33653 8.12709 1.3144 8.11131L1.14368 7.98931L0.972965 8.11131C0.950872 8.12709 0.921372 8.10569 0.929559 8.07978L0.99284 7.87972L0.824028 7.75506C0.802184 7.73894 0.813434 7.70425 0.84059 7.70403L1.0504 7.70241L1.11678 7.50334C1.1255 7.47756 1.16197 7.47756 1.17056 7.50334Z" fill="#F5F5F5"/>
<path d="M1.97906 1.55571L2.04543 1.75478L2.25525 1.7564C2.2824 1.75662 2.29368 1.79128 2.27184 1.8074L2.10303 1.93206L2.16631 2.13212C2.1745 2.15803 2.14503 2.17946 2.1229 2.16365L1.95225 2.04162L1.78153 2.16365C1.75943 2.17946 1.72993 2.15803 1.73812 2.13212L1.8014 1.93206L1.63262 1.8074C1.61078 1.79128 1.62203 1.75659 1.64918 1.7564L1.859 1.75478L1.92537 1.55571C1.934 1.52993 1.97047 1.52993 1.97906 1.55571Z" fill="#F5F5F5"/>
<path d="M1.97912 3.39727L2.0455 3.59633L2.25531 3.59795C2.28247 3.59817 2.29375 3.63283 2.2719 3.64898L2.10309 3.77364L2.16637 3.9737C2.17456 3.99961 2.14509 4.02105 2.12297 4.00523L1.95225 3.8832L1.78153 4.00523C1.75943 4.02105 1.72993 3.99961 1.73812 3.9737L1.8014 3.77364L1.63262 3.64898C1.61078 3.63286 1.62203 3.59817 1.64918 3.59795L1.859 3.59633L1.92537 3.39727C1.93406 3.37148 1.97053 3.37148 1.97912 3.39727Z" fill="#F5F5F5"/>
<path d="M1.97912 5.147L2.0455 5.34606L2.25531 5.34769C2.28247 5.3479 2.29375 5.38256 2.2719 5.39872L2.10309 5.52337L2.16637 5.72344C2.17456 5.74934 2.14509 5.77075 2.12297 5.75497L1.95225 5.63294L1.78153 5.75497C1.75943 5.77078 1.72993 5.74934 1.73812 5.72344L1.8014 5.52337L1.63262 5.39872C1.61078 5.38259 1.62203 5.3479 1.64918 5.34769L1.859 5.34606L1.92537 5.147C1.93406 5.12125 1.97053 5.12125 1.97912 5.147Z" fill="#F5F5F5"/>
<path d="M1.97912 6.71831L2.0455 6.91737L2.25531 6.919C2.28247 6.91922 2.29375 6.95387 2.2719 6.97003L2.10309 7.09469L2.16637 7.29475C2.17456 7.32065 2.14509 7.34209 2.12297 7.32628L1.95225 7.20428L1.78153 7.32628C1.75943 7.34209 1.72993 7.32065 1.73812 7.29475L1.8014 7.09469L1.63262 6.97003C1.61078 6.9539 1.62203 6.91922 1.64918 6.919L1.859 6.91737L1.92537 6.71831C1.93406 6.69253 1.97053 6.69253 1.97912 6.71831Z" fill="#F5F5F5"/>
<path d="M2.78674 0.769313L2.85311 0.968375L3.06293 0.97C3.09008 0.970219 3.10136 1.00488 3.07952 1.021L2.91071 1.14566L2.97399 1.34572C2.98218 1.37163 2.95271 1.39303 2.93058 1.37725L2.75986 1.25522L2.58915 1.37725C2.56705 1.39306 2.53755 1.37163 2.54574 1.34572L2.60902 1.14566L2.44024 1.021C2.4184 1.00488 2.42965 0.970188 2.4568 0.97L2.66661 0.968375L2.73299 0.769313C2.74168 0.743563 2.77815 0.743563 2.78674 0.769313Z" fill="#F5F5F5"/>
<path d="M2.78674 2.42986L2.85311 2.62892L3.06293 2.63055C3.09008 2.63076 3.10136 2.66542 3.07952 2.68158L2.91071 2.80623L2.97399 3.0063C2.98218 3.0322 2.95271 3.05361 2.93058 3.03783L2.75986 2.9158L2.58915 3.03783C2.56705 3.05364 2.53755 3.0322 2.54574 3.0063L2.60902 2.80623L2.44024 2.68158C2.4184 2.66545 2.42965 2.63076 2.4568 2.63055L2.66661 2.62892L2.73299 2.42986C2.74168 2.40408 2.77815 2.40408 2.78674 2.42986Z" fill="#F5F5F5"/>
<path d="M2.78674 4.27153L2.85311 4.4706L3.06293 4.47222C3.09008 4.47244 3.10136 4.5071 3.07952 4.52325L2.91071 4.64791L2.97399 4.84797C2.98218 4.87388 2.95271 4.89528 2.93058 4.8795L2.75986 4.7575L2.58915 4.8795C2.56705 4.89528 2.53755 4.87388 2.54574 4.84797L2.60902 4.64791L2.44024 4.52325C2.4184 4.50713 2.42965 4.47244 2.4568 4.47222L2.66661 4.4706L2.73299 4.27153C2.74168 4.24575 2.77815 4.24575 2.78674 4.27153Z" fill="#F5F5F5"/>
<path d="M2.78674 5.96355L2.85311 6.16261L3.06293 6.16424C3.09008 6.16446 3.10136 6.19911 3.07952 6.21527L2.91071 6.33993L2.97399 6.53999C2.98218 6.56589 2.95271 6.5873 2.93058 6.57152L2.75986 6.44949L2.58915 6.57152C2.56705 6.5873 2.53755 6.56589 2.54574 6.53999L2.60902 6.33993L2.44024 6.21527C2.4184 6.19914 2.42965 6.16446 2.4568 6.16424L2.66661 6.16261L2.73299 5.96355C2.74168 5.93777 2.77815 5.93777 2.78674 5.96355Z" fill="#F5F5F5"/>
<path d="M2.78674 7.50334L2.85311 7.70241L3.06293 7.70403C3.09008 7.70425 3.10136 7.73891 3.07952 7.75506L2.91071 7.87972L2.97399 8.07978C2.98218 8.10569 2.95271 8.12709 2.93058 8.11131L2.75986 7.98931L2.58915 8.11131C2.56705 8.12709 2.53755 8.10569 2.54574 8.07978L2.60902 7.87972L2.44024 7.75506C2.4184 7.73894 2.42965 7.70425 2.4568 7.70403L2.66661 7.70241L2.73299 7.50334C2.74168 7.47756 2.77815 7.47756 2.78674 7.50334Z" fill="#F5F5F5"/>
<path d="M3.59536 1.55571L3.66174 1.75478L3.87155 1.7564C3.89871 1.75662 3.90999 1.79128 3.88811 1.8074L3.71933 1.93206L3.78261 2.13212C3.7908 2.15803 3.76133 2.17946 3.73921 2.16365L3.56849 2.04162L3.39777 2.16365C3.37567 2.17946 3.34617 2.15803 3.35436 2.13212L3.41764 1.93206L3.24883 1.8074C3.22699 1.79128 3.23824 1.75659 3.26542 1.7564L3.47524 1.75478L3.54161 1.55571C3.55033 1.52993 3.58677 1.52993 3.59536 1.55571Z" fill="#F5F5F5"/>
<path d="M3.59536 3.39727L3.66174 3.59633L3.87155 3.59795C3.89871 3.59817 3.90999 3.63283 3.88811 3.64898L3.71933 3.77364L3.78261 3.9737C3.7908 3.99961 3.76133 4.02105 3.73921 4.00523L3.56849 3.8832L3.39777 4.00523C3.37567 4.02105 3.34617 3.99961 3.35436 3.9737L3.41764 3.77364L3.24883 3.64898C3.22699 3.63286 3.23824 3.59817 3.26542 3.59795L3.47524 3.59633L3.54161 3.39727C3.55033 3.37148 3.58677 3.37148 3.59536 3.39727Z" fill="#F5F5F5"/>
<path d="M3.59536 5.147L3.66174 5.34606L3.87155 5.34769C3.89871 5.3479 3.90999 5.38256 3.88811 5.39872L3.71933 5.52337L3.78261 5.72344C3.7908 5.74934 3.76133 5.77075 3.73921 5.75497L3.56849 5.63294L3.39777 5.75497C3.37567 5.77078 3.34617 5.74934 3.35436 5.72344L3.41764 5.52337L3.24883 5.39872C3.22699 5.38259 3.23824 5.3479 3.26542 5.34769L3.47524 5.34606L3.54161 5.147C3.55033 5.12125 3.58677 5.12125 3.59536 5.147Z" fill="#F5F5F5"/>
<path d="M3.59536 6.71831L3.66174 6.91737L3.87155 6.919C3.89871 6.91922 3.90999 6.95387 3.88811 6.97003L3.71933 7.09469L3.78261 7.29475C3.7908 7.32065 3.76133 7.34209 3.73921 7.32628L3.56849 7.20428L3.39777 7.32628C3.37567 7.34209 3.34617 7.32065 3.35436 7.29475L3.41764 7.09469L3.24883 6.97003C3.22699 6.9539 3.23824 6.91922 3.26542 6.919L3.47524 6.91737L3.54161 6.71831C3.55033 6.69253 3.58677 6.69253 3.59536 6.71831Z" fill="#F5F5F5"/>
<path d="M4.40295 0.769313L4.46932 0.968375L4.67914 0.97C4.70629 0.970219 4.71757 1.00488 4.6957 1.021L4.52692 1.14566L4.5902 1.34572C4.59839 1.37163 4.56892 1.39303 4.54679 1.37725L4.37607 1.25522L4.20535 1.37725C4.18326 1.39306 4.15376 1.37163 4.16195 1.34572L4.22523 1.14566L4.05645 1.021C4.0346 1.00488 4.04585 0.970188 4.07304 0.97L4.28285 0.968375L4.34923 0.769313C4.35792 0.743563 4.39435 0.743563 4.40295 0.769313Z" fill="#F5F5F5"/>
<path d="M4.40389 2.42986L4.47027 2.62892L4.68008 2.63055C4.70724 2.63077 4.71852 2.66542 4.69664 2.68158L4.52786 2.80624L4.59117 3.00627C4.59936 3.03217 4.56989 3.05358 4.54777 3.0378L4.37705 2.91577L4.20633 3.0378C4.18424 3.05361 4.15474 3.03217 4.16292 3.00627L4.22621 2.80621L4.05742 2.68155C4.03558 2.66542 4.04683 2.63074 4.07402 2.63052L4.28383 2.62889L4.35021 2.42983C4.35886 2.40408 4.3953 2.40408 4.40389 2.42986Z" fill="#F5F5F5"/>
<path d="M4.40295 4.27153L4.46932 4.4706L4.67914 4.47222C4.70629 4.47244 4.71757 4.5071 4.6957 4.52325L4.52692 4.64791L4.5902 4.84797C4.59839 4.87388 4.56892 4.89528 4.54679 4.8795L4.37607 4.7575L4.20535 4.8795C4.18326 4.89528 4.15376 4.87388 4.16195 4.84797L4.22523 4.64791L4.05645 4.52325C4.0346 4.50713 4.04585 4.47244 4.07304 4.47222L4.28285 4.4706L4.34923 4.27153C4.35792 4.24575 4.39435 4.24575 4.40295 4.27153Z" fill="#F5F5F5"/>
<path d="M4.40295 5.96355L4.46932 6.16261L4.67914 6.16424C4.70629 6.16446 4.71757 6.19911 4.6957 6.21527L4.52692 6.33993L4.5902 6.53999C4.59839 6.56589 4.56892 6.5873 4.54679 6.57152L4.37607 6.44949L4.20535 6.57152C4.18326 6.5873 4.15376 6.56589 4.16195 6.53999L4.22523 6.33993L4.05645 6.21527C4.0346 6.19914 4.04585 6.16446 4.07304 6.16424L4.28285 6.16261L4.34923 5.96355C4.35792 5.93777 4.39435 5.93777 4.40295 5.96355Z" fill="#F5F5F5"/>
<path d="M4.40295 7.50334L4.46932 7.70241L4.67914 7.70403C4.70629 7.70425 4.71757 7.73891 4.6957 7.75506L4.52692 7.87972L4.5902 8.07978C4.59839 8.10569 4.56892 8.12709 4.54679 8.11131L4.37607 7.98931L4.20535 8.11131C4.18326 8.12709 4.15376 8.10569 4.16195 8.07978L4.22523 7.87972L4.05645 7.75506C4.0346 7.73894 4.04585 7.70425 4.07304 7.70403L4.28285 7.70241L4.34923 7.50334C4.35792 7.47756 4.39435 7.47756 4.40295 7.50334Z" fill="#F5F5F5"/>
<path d="M5.21158 1.55571L5.27795 1.75478L5.48776 1.7564C5.51492 1.75662 5.5262 1.79128 5.50433 1.8074L5.33551 1.93206L5.39879 2.13212C5.40698 2.15803 5.37748 2.17946 5.35539 2.16365L5.18467 2.04162L5.01395 2.16365C4.99186 2.17946 4.96236 2.15803 4.97054 2.13212L5.03382 1.93206L4.86504 1.8074C4.8432 1.79128 4.85445 1.75659 4.88161 1.7564L5.09142 1.75478L5.15779 1.55571C5.16654 1.52993 5.20298 1.52993 5.21158 1.55571Z" fill="#F5F5F5"/>
<path d="M5.21158 3.39727L5.27795 3.59633L5.48776 3.59795C5.51492 3.59817 5.5262 3.63283 5.50433 3.64898L5.33551 3.77364L5.39879 3.9737C5.40698 3.99961 5.37748 4.02105 5.35539 4.00523L5.18467 3.8832L5.01395 4.00523C4.99186 4.02105 4.96236 3.99961 4.97054 3.9737L5.03382 3.77364L4.86504 3.64898C4.8432 3.63286 4.85445 3.59817 4.88161 3.59795L5.09142 3.59633L5.15779 3.39727C5.16654 3.37148 5.20298 3.37148 5.21158 3.39727Z" fill="#F5F5F5"/>
<path d="M5.21158 5.147L5.27795 5.34606L5.48776 5.34769C5.51492 5.3479 5.5262 5.38256 5.50433 5.39872L5.33551 5.52337L5.39879 5.72344C5.40698 5.74934 5.37748 5.77075 5.35539 5.75497L5.18467 5.63294L5.01395 5.75497C4.99186 5.77078 4.96236 5.74934 4.97054 5.72344L5.03382 5.52337L4.86504 5.39872C4.8432 5.38259 4.85445 5.3479 4.88161 5.34769L5.09142 5.34606L5.15779 5.147C5.16654 5.12125 5.20298 5.12125 5.21158 5.147Z" fill="#F5F5F5"/>
<path d="M5.21158 6.71831L5.27795 6.91737L5.48776 6.919C5.51492 6.91922 5.5262 6.95387 5.50433 6.97003L5.33551 7.09469L5.39879 7.29475C5.40698 7.32065 5.37748 7.34209 5.35539 7.32628L5.18467 7.20428L5.01395 7.32628C4.99186 7.34209 4.96236 7.32065 4.97054 7.29475L5.03382 7.09469L4.86504 6.97003C4.8432 6.9539 4.85445 6.91922 4.88161 6.919L5.09142 6.91737L5.15779 6.71831C5.16654 6.69253 5.20298 6.69253 5.21158 6.71831Z" fill="#F5F5F5"/>
<path d="M6.0202 0.769313L6.08657 0.968375L6.29639 0.97C6.32354 0.970219 6.33482 1.00488 6.31295 1.021L6.14414 1.14566L6.20742 1.34572C6.2156 1.37163 6.1861 1.39303 6.16401 1.37725L5.99329 1.25522L5.82257 1.37725C5.80048 1.39306 5.77098 1.37163 5.77917 1.34572L5.84245 1.14566L5.67364 1.021C5.65179 1.00488 5.66304 0.970188 5.69023 0.97L5.90004 0.968375L5.96642 0.769313C5.97517 0.743563 6.0116 0.743563 6.0202 0.769313Z" fill="#F5F5F5"/>
<path d="M6.0202 2.42986L6.08657 2.62892L6.29639 2.63055C6.32354 2.63076 6.33482 2.66542 6.31295 2.68158L6.14414 2.80623L6.20742 3.0063C6.2156 3.0322 6.1861 3.05361 6.16401 3.03783L5.99329 2.9158L5.82257 3.03783C5.80048 3.05364 5.77098 3.0322 5.77917 3.0063L5.84245 2.80623L5.67364 2.68158C5.65179 2.66545 5.66304 2.63076 5.69023 2.63055L5.90004 2.62892L5.96642 2.42986C5.97517 2.40408 6.0116 2.40408 6.0202 2.42986Z" fill="#F5F5F5"/>
<path d="M6.0202 4.27153L6.08657 4.4706L6.29639 4.47222C6.32354 4.47244 6.33482 4.5071 6.31295 4.52325L6.14414 4.64791L6.20742 4.84797C6.2156 4.87388 6.1861 4.89528 6.16401 4.8795L5.99329 4.7575L5.82257 4.8795C5.80048 4.89528 5.77098 4.87388 5.77917 4.84797L5.84245 4.64791L5.67364 4.52325C5.65179 4.50713 5.66304 4.47244 5.69023 4.47222L5.90004 4.4706L5.96642 4.27153C5.97517 4.24575 6.0116 4.24575 6.0202 4.27153Z" fill="#F5F5F5"/>
<path d="M6.0202 5.96355L6.08657 6.16261L6.29639 6.16424C6.32354 6.16446 6.33482 6.19911 6.31295 6.21527L6.14414 6.33993L6.20742 6.53999C6.2156 6.56589 6.1861 6.5873 6.16401 6.57152L5.99329 6.44949L5.82257 6.57152C5.80048 6.5873 5.77098 6.56589 5.77917 6.53999L5.84245 6.33993L5.67364 6.21527C5.65179 6.19914 5.66304 6.16446 5.69023 6.16424L5.90004 6.16261L5.96642 5.96355C5.97517 5.93777 6.0116 5.93777 6.0202 5.96355Z" fill="#F5F5F5"/>
<path d="M6.0202 7.50334L6.08657 7.70241L6.29639 7.70403C6.32354 7.70425 6.33482 7.73891 6.31295 7.75506L6.14414 7.87972L6.20742 8.07978C6.2156 8.10569 6.1861 8.12709 6.16401 8.11131L5.99329 7.98931L5.82257 8.11131C5.80048 8.12709 5.77098 8.10569 5.77917 8.07978L5.84245 7.87972L5.67364 7.75506C5.65179 7.73894 5.66304 7.70425 5.69023 7.70403L5.90004 7.70241L5.96642 7.50334C5.97517 7.47756 6.0116 7.47756 6.0202 7.50334Z" fill="#F5F5F5"/>
<path d="M6.82779 1.55571L6.89416 1.75478L7.104 1.7564C7.13116 1.75662 7.14244 1.79128 7.12057 1.8074L6.95175 1.93206L7.01504 2.13212C7.02322 2.15803 6.99372 2.17946 6.97163 2.16365L6.80091 2.04162L6.63019 2.16365C6.6081 2.17946 6.5786 2.15803 6.58679 2.13212L6.65007 1.93206L6.48125 1.8074C6.45941 1.79128 6.47066 1.75659 6.49782 1.7564L6.70766 1.75478L6.77404 1.55571C6.78275 1.52993 6.81919 1.52993 6.82779 1.55571Z" fill="#F5F5F5"/>
<path d="M6.82779 3.39727L6.89416 3.59633L7.104 3.59795C7.13116 3.59817 7.14244 3.63283 7.12057 3.64898L6.95175 3.77364L7.01504 3.9737C7.02322 3.99961 6.99372 4.02105 6.97163 4.00523L6.80091 3.8832L6.63019 4.00523C6.6081 4.02105 6.5786 3.99961 6.58679 3.9737L6.65007 3.77364L6.48125 3.64898C6.45941 3.63286 6.47066 3.59817 6.49782 3.59795L6.70766 3.59633L6.77404 3.39727C6.78275 3.37148 6.81919 3.37148 6.82779 3.39727Z" fill="#F5F5F5"/>
<path d="M6.82779 5.147L6.89416 5.34606L7.104 5.34769C7.13116 5.3479 7.14244 5.38256 7.12057 5.39872L6.95175 5.52337L7.01504 5.72344C7.02322 5.74934 6.99372 5.77075 6.97163 5.75497L6.80091 5.63294L6.63019 5.75497C6.6081 5.77078 6.5786 5.74934 6.58679 5.72344L6.65007 5.52337L6.48125 5.39872C6.45941 5.38259 6.47066 5.3479 6.49782 5.34769L6.70766 5.34606L6.77404 5.147C6.78275 5.12125 6.81919 5.12125 6.82779 5.147Z" fill="#F5F5F5"/>
<path d="M6.82779 6.71831L6.89416 6.91737L7.104 6.919C7.13116 6.91922 7.14244 6.95387 7.12057 6.97003L6.95175 7.09469L7.01504 7.29475C7.02322 7.32065 6.99372 7.34209 6.97163 7.32628L6.80091 7.20428L6.63019 7.32628C6.6081 7.34209 6.5786 7.32065 6.58679 7.29475L6.65007 7.09469L6.48125 6.97003C6.45941 6.9539 6.47066 6.91922 6.49782 6.919L6.70766 6.91737L6.77404 6.71831C6.78275 6.69253 6.81919 6.69253 6.82779 6.71831Z" fill="#F5F5F5"/>
<path d="M7.63638 0.769313L7.70275 0.968375L7.91257 0.97C7.93972 0.970219 7.951 1.00488 7.92916 1.021L7.76035 1.14566L7.82363 1.34572C7.83182 1.37163 7.80232 1.39303 7.78022 1.37725L7.6095 1.25522L7.43879 1.37725C7.41669 1.39306 7.38719 1.37163 7.39538 1.34572L7.45866 1.14566L7.28985 1.021C7.268 1.00488 7.27925 0.970188 7.30641 0.97L7.51622 0.968375L7.5826 0.769313C7.59135 0.743563 7.62779 0.743563 7.63638 0.769313Z" fill="#F5F5F5"/>
<path d="M7.63638 2.42986L7.70275 2.62892L7.91257 2.63055C7.93972 2.63076 7.951 2.66542 7.92916 2.68158L7.76035 2.80623L7.82363 3.0063C7.83182 3.0322 7.80232 3.05361 7.78022 3.03783L7.6095 2.9158L7.43879 3.03783C7.41669 3.05364 7.38719 3.0322 7.39538 3.0063L7.45866 2.80623L7.28985 2.68158C7.268 2.66545 7.27925 2.63076 7.30641 2.63055L7.51622 2.62892L7.5826 2.42986C7.59135 2.40408 7.62779 2.40408 7.63638 2.42986Z" fill="#F5F5F5"/>
<path d="M7.63638 4.27153L7.70275 4.4706L7.91257 4.47222C7.93972 4.47244 7.951 4.5071 7.92916 4.52325L7.76035 4.64791L7.82363 4.84797C7.83182 4.87388 7.80232 4.89528 7.78022 4.8795L7.6095 4.7575L7.43879 4.8795C7.41669 4.89528 7.38719 4.87388 7.39538 4.84797L7.45866 4.64791L7.28985 4.52325C7.268 4.50713 7.27925 4.47244 7.30641 4.47222L7.51622 4.4706L7.5826 4.27153C7.59135 4.24575 7.62779 4.24575 7.63638 4.27153Z" fill="#F5F5F5"/>
<path d="M7.63638 5.96355L7.70275 6.16261L7.91257 6.16424C7.93972 6.16446 7.951 6.19911 7.92916 6.21527L7.76035 6.33993L7.82363 6.53999C7.83182 6.56589 7.80232 6.5873 7.78022 6.57152L7.6095 6.44949L7.43879 6.57152C7.41669 6.5873 7.38719 6.56589 7.39538 6.53999L7.45866 6.33993L7.28985 6.21527C7.268 6.19914 7.27925 6.16446 7.30641 6.16424L7.51622 6.16261L7.5826 5.96355C7.59135 5.93777 7.62779 5.93777 7.63638 5.96355Z" fill="#F5F5F5"/>
<path d="M7.63638 7.50334L7.70275 7.70241L7.91257 7.70403C7.93972 7.70425 7.951 7.73891 7.92916 7.75506L7.76035 7.87972L7.82363 8.07978C7.83182 8.10569 7.80232 8.12709 7.78022 8.11131L7.6095 7.98931L7.43879 8.11131C7.41669 8.12709 7.38719 8.10569 7.39538 8.07978L7.45866 7.87972L7.28985 7.75506C7.268 7.73894 7.27925 7.70425 7.30641 7.70403L7.51622 7.70241L7.5826 7.50334C7.59135 7.47756 7.62779 7.47756 7.63638 7.50334Z" fill="#F5F5F5"/>
</g>
<defs>
<clipPath id="clip0_837_35718">
<rect width="16" height="16" fill="white"/>
</clipPath>
</defs>
</svg>
