<svg width="24" height="24" viewBox="0 0 24 24" fill="none" xmlns="http://www.w3.org/2000/svg">
<path d="M12.0497 21C11.4669 21 11.0063 20.5367 10.5291 20.2021C6.36213 17.28 2.25515 13.5893 2.3497 8.2C2.2497 5.4 4.6497 3 7.4497 3C9.7497 3 11.2497 4.4 12.0497 5.4C12.7497 4.4 14.2497 3 16.5497 3C19.3497 3 21.7497 5.4 21.7497 8.3C21.8334 12.985 15.5478 18.5799 13.4916 20.2831C13.0683 20.6337 12.5993 21 12.0497 21ZM7.4497 4.5C5.4497 4.5 3.7497 6.2 3.7497 8.3C3.7497 13.2 7.8497 16.7 11.9497 19.5C16.5497 16.1906 20.2556 11.6803 20.2556 8.3C20.2556 6.2 18.5497 4.5 16.5497 4.5C14.0497 4.5 12.6497 7.1 12.6497 7.1C12.5497 7.3 12.2497 7.5 11.9497 7.5C11.4052 7.5 11.1328 6.84525 10.8073 6.40875C10.2329 5.63851 9.10402 4.5 7.4497 4.5Z" fill="#F7F9FA"/>
</svg>
