<svg width="46" height="45" viewBox="0 0 46 45" fill="none" xmlns="http://www.w3.org/2000/svg">
<g filter="url(#filter0_d_365_7449)">
<path d="M23.7505 31L23.3286 30.7188C21.3233 29.3795 18.7859 27.8659 16.9067 25.6412C14.9262 23.2975 13.9761 20.8905 14.0005 18.2819C14.03 15.3691 16.3658 13 19.2073 13C21.4625 13 22.962 14.3125 23.7505 15.2598C24.5389 14.3125 26.0384 13 28.2936 13C31.1351 13 33.4709 15.3691 33.5005 18.2805C33.5267 20.8905 32.5766 23.2961 30.5942 25.6398C28.715 27.8659 26.1776 29.3795 24.1723 30.7188L23.7505 31Z" fill="#82CC27"/>
<path d="M28.2939 14C30.4935 14.0002 32.3569 15.7876 32.4932 18.0684L32.501 18.291C32.5243 20.6198 31.687 22.7997 29.8311 24.9941L29.8301 24.9951C28.1038 27.0399 25.7873 28.4438 23.75 29.7979C21.843 28.5304 19.6919 27.2186 18.0088 25.3799L17.6709 24.9961L17.335 24.584C15.7153 22.5277 14.9798 20.4744 15 18.292C15.0242 15.9046 16.9367 14.0002 19.207 14C21.0388 14 22.2839 15.0614 22.9814 15.8994L23.75 16.8232L24.5195 15.8994C25.2171 15.0614 26.4622 14 28.2939 14Z" stroke="#F7F9FA" stroke-opacity="0.12" stroke-width="2"/>
</g>
<defs>
<filter id="filter0_d_365_7449" x="0" y="-1" width="47.502" height="46" filterUnits="userSpaceOnUse" color-interpolation-filters="sRGB">
<feFlood flood-opacity="0" result="BackgroundImageFix"/>
<feColorMatrix in="SourceAlpha" type="matrix" values="0 0 0 0 0 0 0 0 0 0 0 0 0 0 0 0 0 0 127 0" result="hardAlpha"/>
<feOffset/>
<feGaussianBlur stdDeviation="7"/>
<feComposite in2="hardAlpha" operator="out"/>
<feColorMatrix type="matrix" values="0 0 0 0 0.509804 0 0 0 0 0.8 0 0 0 0 0.152941 0 0 0 0.4 0"/>
<feBlend mode="normal" in2="BackgroundImageFix" result="effect1_dropShadow_365_7449"/>
<feBlend mode="normal" in="SourceGraphic" in2="effect1_dropShadow_365_7449" result="shape"/>
</filter>
</defs>
</svg>
