<svg width="24" height="24" viewBox="0 0 24 24" fill="none" xmlns="http://www.w3.org/2000/svg">
<path fill-rule="evenodd" clip-rule="evenodd" d="M11.4697 2.46967C11.7626 2.17678 12.2375 2.17678 12.5304 2.46967L21.5304 11.4697C21.7449 11.6842 21.809 12.0068 21.6929 12.287C21.5768 12.5673 21.3034 12.75 21 12.75H19.75V19C19.75 20.5188 18.5188 21.75 17 21.75H7.00002C5.48124 21.75 4.25002 20.5188 4.25002 19V12.75H3.00002C2.69668 12.75 2.4232 12.5673 2.30711 12.287C2.19103 12.0068 2.25519 11.6842 2.46969 11.4697L11.4697 2.46967ZM9.75002 20.25H14.25V15C14.25 14.3096 13.6904 13.75 13 13.75H11C10.3097 13.75 9.75002 14.3096 9.75002 15V20.25ZM15.75 20.25V15C15.75 13.4812 14.5188 12.25 13 12.25H11C9.48124 12.25 8.25002 13.4812 8.25002 15V20.25H7.00002C6.30967 20.25 5.75002 19.6904 5.75002 19V12C5.75002 11.5858 5.41424 11.25 5.00002 11.25H4.81068L12 4.06066L19.1894 11.25H19C18.5858 11.25 18.25 11.5858 18.25 12V19C18.25 19.6904 17.6904 20.25 17 20.25H15.75Z" fill="#F7F9FA"/>
</svg>
