<svg width="20" height="20" viewBox="0 0 20 20" fill="none" xmlns="http://www.w3.org/2000/svg">
<path d="M12.7386 3.33333C10.9854 3.33333 9.56413 4.82571 9.56413 6.66666C9.56413 6.94485 9.59658 7.21507 9.65773 7.47339C7.97196 7.47339 5.43282 7.13256 3.31224 5.008C3.03025 4.72549 2.51027 4.91437 2.52983 5.31306C2.8441 11.7189 5.58751 13.5874 7.00029 13.7037C6.088 14.6047 4.76279 15.3159 3.42928 15.6351C3.07734 15.7194 2.9904 16.1047 3.33454 16.2166C4.28873 16.5269 5.65451 16.6465 6.38966 16.6667C11.5904 16.6667 15.8174 12.2893 15.9115 6.85191C16.5943 6.40787 17.0316 5.44374 17.2774 4.76075C17.3372 4.59441 17.0646 4.4006 16.9014 4.46855C16.3914 4.68089 15.7438 4.73123 15.1922 4.5515C14.61 3.80772 13.7271 3.33333 12.7386 3.33333Z" fill="#F7F9FA" fill-opacity="0.75"/>
</svg>
