<svg width="122" height="108" viewBox="0 0 122 108" fill="none" xmlns="http://www.w3.org/2000/svg">
<g style="mix-blend-mode:lighten">
<path d="M264.492 11.5474L145.943 -24.8751C139.483 -26.8598 132.513 -26.8598 126.057 -24.8751L7.50338 11.5474C-2.50113 14.6202 -2.50113 27.8504 7.50338 30.9232L28.1711 37.2727C23.6364 42.8784 20.8484 49.7167 20.5721 57.2052C16.4794 59.5512 13.5979 63.7842 13.5979 68.8374C13.5979 73.4189 16.0119 77.2737 19.4884 79.7387L8.63813 128.563C7.69462 132.808 10.9246 136.837 15.2724 136.837H39.1191C43.4711 136.837 46.7011 132.808 45.7576 128.563L34.9074 79.7387C38.3839 77.2737 40.7979 73.4189 40.7979 68.8374C40.7979 63.9202 38.0481 59.8062 34.1424 57.4177C34.4654 51.0342 37.7294 45.3902 42.9356 41.8117L126.053 67.3499C129.903 68.5314 137.29 70.0062 145.939 67.3499L264.492 30.9274C274.501 27.8504 274.501 14.6244 264.492 11.5474ZM149.934 80.3507C137.808 84.0737 127.477 82.0167 122.058 80.3507L60.4244 61.4169L54.3979 109.637C54.3979 124.661 90.9309 136.837 135.998 136.837C181.065 136.837 217.598 124.661 217.598 109.637L211.571 61.4127L149.934 80.3507Z" fill="#F7F9FA"/>
</g>
</svg>
