<svg width="3" height="8" viewBox="0 0 3 8" fill="none" xmlns="http://www.w3.org/2000/svg">
<g filter="url(#filter0_i_454_7988)">
<path d="M0.283232 8C0.0916763 8 -0.0445544 7.8098 0.0135261 7.62345L0.379233 6.45007C0.495097 6.07832 0.711462 5.74754 1.00341 5.49583C1.01677 5.47942 1.02921 5.46168 1.04091 5.44291C1.0702 5.39619 1.07444 5.2985 1.04505 5.24752C0.956974 5.09885 0.856366 4.95444 0.747374 4.81426C0.696056 4.75194 0.641791 4.69266 0.586972 4.63345C0.529666 4.57161 0.471807 4.50982 0.416067 4.44473C0.307075 4.31729 0.319697 4.27057 0.420305 4.13889C0.474847 4.06668 0.512529 3.96049 0.512529 3.87128C0.516767 3.5697 0.403537 3.28937 0.286161 3.01751C0.231619 2.89008 0.361617 2.6777 0.499999 2.6777H0.915054L0.919661 2.6692C0.923899 2.6617 0.928874 2.65271 0.931822 2.64372C0.63829 2.41859 0.466463 2.12975 0.504145 1.74747C0.525151 1.54358 0.583839 1.35243 0.701216 1.16129C0.881518 1.3227 1.04929 1.47561 1.21697 1.62854C1.25594 1.66557 1.28506 1.67821 1.31325 1.66895C1.33361 1.66228 1.35351 1.64424 1.37627 1.61579C1.42666 1.55633 1.41828 1.52659 1.36374 1.47987C1.24037 1.37093 1.1218 1.25958 1.00083 1.14945C0.961396 1.11358 0.921687 1.07783 0.881518 1.04235C0.818592 0.987141 0.814446 0.944662 0.868988 0.885195C0.965358 0.774761 1.05344 0.655826 1.15404 0.54538C1.19596 0.498657 1.21697 0.464679 1.19182 0.396711C1.14151 0.265044 1.18343 0.146109 1.30081 0.0611521C1.42242 -0.0238046 1.60273 -0.0195603 1.72434 0.0696407C1.82919 0.150353 1.86687 0.269288 1.81657 0.400967C1.79141 0.464679 1.81242 0.494413 1.85434 0.536891C2.10171 0.804494 2.3197 1.08909 2.44131 1.44163C2.59646 1.88764 2.49162 2.27418 2.1394 2.5885C2.12954 2.59649 2.1206 2.60541 2.11268 2.61747C2.10365 2.63109 2.09582 2.64869 2.08909 2.67345H2.42454C2.57555 2.67345 2.68869 2.74566 2.74323 2.89008C2.75585 2.91982 2.73908 2.9623 2.72646 2.99627C2.65101 3.23414 2.56293 3.47201 2.50424 3.71413C2.46232 3.88829 2.47485 4.06243 2.63838 4.19411C2.72222 4.26208 2.65939 4.35552 2.60908 4.41924C2.56394 4.47633 2.5152 4.52851 2.46674 4.5804C2.4251 4.62503 2.38364 4.66944 2.34485 4.71657C2.32016 4.74681 2.2951 4.77687 2.26995 4.80697C2.17164 4.92486 2.07288 5.04334 1.99272 5.17531C1.91376 5.29967 1.9204 5.4137 1.99982 5.49583C2.28973 5.74761 2.50461 6.0774 2.62002 6.44768L2.98647 7.62345C3.04455 7.8098 2.90832 8 2.71677 8H0.283232Z" fill="#6D7274"/>
</g>
<defs>
<filter id="filter0_i_454_7988" x="0" y="0" width="3" height="8" filterUnits="userSpaceOnUse" color-interpolation-filters="sRGB">
<feFlood flood-opacity="0" result="BackgroundImageFix"/>
<feBlend mode="normal" in="SourceGraphic" in2="BackgroundImageFix" result="shape"/>
<feColorMatrix in="SourceAlpha" type="matrix" values="0 0 0 0 0 0 0 0 0 0 0 0 0 0 0 0 0 0 127 0" result="hardAlpha"/>
<feOffset dx="-1.5"/>
<feComposite in2="hardAlpha" operator="arithmetic" k2="-1" k3="1"/>
<feColorMatrix type="matrix" values="0 0 0 0 0 0 0 0 0 0 0 0 0 0 0 0 0 0 0.18 0"/>
<feBlend mode="normal" in2="shape" result="effect1_innerShadow_454_7988"/>
</filter>
</defs>
</svg>
