<svg width="40" height="40" viewBox="0 0 40 40" fill="none" xmlns="http://www.w3.org/2000/svg">
<path d="M19.9102 4.59009C19.9475 4.51817 20.0506 4.51817 20.0879 4.59009L24.4619 13.0198C24.6214 13.3271 24.9163 13.5411 25.2578 13.5979L34.627 15.1536C34.7069 15.1668 34.7385 15.2648 34.6816 15.3225L28.0166 22.0872C27.7735 22.3339 27.6603 22.6812 27.7119 23.0237L29.1279 32.4143C29.14 32.4944 29.0568 32.555 28.9844 32.5188L20.4912 28.2708C20.1814 28.1158 19.8166 28.1158 19.5068 28.2708L11.0127 32.5188C10.9402 32.555 10.8571 32.4944 10.8691 32.4143L12.2852 23.0237C12.3368 22.6812 12.2245 22.3339 11.9814 22.0872L5.31543 15.3225C5.2586 15.2648 5.29032 15.167 5.37012 15.1536L14.7393 13.5979C15.0809 13.5412 15.3756 13.3271 15.5352 13.0198L19.9102 4.59009Z" fill="#E0B531" stroke="#E0B531"/>
</svg>
