<svg width="40" height="40" viewBox="0 0 40 40" fill="none" xmlns="http://www.w3.org/2000/svg">
<path d="M19.4661 4.35957C19.6901 3.92805 20.3073 3.92804 20.5313 4.35957L24.9056 12.7895C24.9926 12.9572 25.1536 13.0741 25.3399 13.105L34.709 14.6603C35.1886 14.7399 35.3793 15.327 35.0381 15.6733L28.3726 22.4385C28.24 22.5731 28.1785 22.7623 28.2067 22.9491L29.6227 32.3402C29.6952 32.8209 29.1958 33.1838 28.761 32.9663L20.2671 28.7175C20.0982 28.633 19.8992 28.633 19.7303 28.7175L11.2364 32.9663C10.8016 33.1838 10.3022 32.8209 10.3747 32.3402L11.7907 22.9491C11.8189 22.7623 11.7574 22.5731 11.6248 22.4385L4.95927 15.6733C4.61806 15.327 4.80881 14.7399 5.28842 14.6603L14.6575 13.105C14.8438 13.0741 15.0048 12.9572 15.0918 12.7895L19.4661 4.35957Z" fill="#232627"/>
</svg>
