<svg width="16" height="16" viewBox="0 0 16 16" fill="none" xmlns="http://www.w3.org/2000/svg">
<g clip-path="url(#clip0_18464_167459)">
<path d="M12.5 0H3.5C1.567 0 0 1.567 0 3.5V7.57894H0.551719V8H16V3.5C16 1.567 14.433 0 12.5 0Z" fill="#F5F5F5"/>
<path d="M0.551719 7.5791H0V8.00016V8.42123V12.5002C0 14.4332 1.567 16.0002 3.5 16.0002H12.5C14.433 16.0002 16 14.4332 16 12.5002V8.00016H0.551719V7.5791Z" fill="#FF4B55"/>
<path d="M8 0H3.5C1.567 0 0 1.567 0 3.5V8H8V0Z" fill="#41479B"/>
<path d="M4.16249 2.20426L4.5639 3.40785L5.83262 3.4177C5.99687 3.41898 6.06499 3.6286 5.93284 3.72616L4.91218 4.47985L5.2949 5.68951C5.34443 5.84613 5.16612 5.97566 5.03249 5.88016L4.00031 5.14241L2.96809 5.8802C2.83446 5.97573 2.65615 5.84616 2.70568 5.68954L3.0884 4.47988L2.06778 3.7262C1.93562 3.6286 2.00374 3.41898 2.16799 3.41773L3.43671 3.40788L3.83812 2.20429C3.89009 2.04845 4.11053 2.04845 4.16249 2.20426Z" fill="#F5F5F5"/>
</g>
<defs>
<clipPath id="clip0_18464_167459">
<rect width="16" height="16" fill="white"/>
</clipPath>
</defs>
</svg>
