<svg width="16" height="16" viewBox="0 0 16 16" fill="none" xmlns="http://www.w3.org/2000/svg">
<g clip-path="url(#clip0_18464_76832)">
<path d="M12.5 0H3.5C1.567 0 0 1.567 0 3.5V12.5C0 14.433 1.567 16 3.5 16H12.5C14.433 16 16 14.433 16 12.5V3.5C16 1.567 14.433 0 12.5 0Z" fill="#F5F5F5"/>
<path d="M16 6.73684H9.26316V0H6.73684V6.73684H0V9.26316H6.73684V16H9.26316V9.26316H16V6.73684Z" fill="#FF4B55"/>
<path d="M5.00024 2.79289C4.58321 2.83483 4.17462 2.87686 3.76546 2.91886C3.80749 2.50964 3.84952 2.10105 3.89149 1.68408C3.50902 1.73355 3.12309 1.73355 2.74062 1.68408C2.78255 2.10111 2.82459 2.50971 2.86665 2.91886C2.45746 2.87683 2.04884 2.83483 1.63184 2.79289C1.6813 3.1753 1.6813 3.5613 1.63184 3.94371C2.04887 3.90177 2.45746 3.85974 2.86665 3.81771C2.82459 4.22693 2.78255 4.63552 2.74062 5.05249C3.12309 5.00302 3.50905 5.00302 3.89149 5.05249C3.84952 4.63546 3.80749 4.22686 3.76546 3.81771C4.17465 3.85974 4.58327 3.90177 5.00024 3.94371C4.95077 3.56133 4.95077 3.1753 5.00024 2.79289Z" fill="#FF4B55"/>
<path d="M14.4065 2.79289C13.9895 2.83483 13.5809 2.87686 13.1717 2.91886C13.2137 2.50964 13.2558 2.10105 13.2977 1.68408C12.9153 1.73355 12.5293 1.73355 12.1469 1.68408C12.1888 2.10111 12.2308 2.50971 12.2729 2.91886C11.8637 2.87683 11.4551 2.83483 11.0381 2.79289C11.0876 3.1753 11.0876 3.5613 11.0381 3.94371C11.4551 3.90177 11.8637 3.85974 12.2729 3.81771C12.2308 4.22693 12.1888 4.63552 12.1469 5.05249C12.5293 5.00302 12.9153 5.00302 13.2977 5.05249C13.2558 4.63546 13.2137 4.22686 13.1717 3.81771C13.5809 3.85974 13.9895 3.90177 14.4065 3.94371C14.357 3.56133 14.357 3.1753 14.4065 2.79289Z" fill="#FF4B55"/>
<path d="M5.00024 12.056C4.58321 12.098 4.17462 12.14 3.76546 12.182C3.80749 11.7728 3.84952 11.3642 3.89149 10.9473C3.50902 10.9967 3.12309 10.9967 2.74062 10.9473C2.78255 11.3643 2.82459 11.7729 2.86665 12.182C2.45746 12.14 2.04884 12.098 1.63184 12.056C1.6813 12.4385 1.6813 12.8245 1.63184 13.2069C2.04887 13.1649 2.45746 13.1229 2.86665 13.0809C2.82459 13.4901 2.78255 13.8987 2.74062 14.3157C3.12309 14.2662 3.50905 14.2662 3.89149 14.3157C3.84952 13.8986 3.80749 13.49 3.76546 13.0809C4.17465 13.1229 4.58327 13.1649 5.00024 13.2069C4.95077 12.8245 4.95077 12.4385 5.00024 12.056Z" fill="#FF4B55"/>
<path d="M14.4065 12.056C13.9895 12.098 13.5809 12.14 13.1717 12.182C13.2137 11.7728 13.2558 11.3642 13.2977 10.9473C12.9153 10.9967 12.5293 10.9967 12.1469 10.9473C12.1888 11.3643 12.2308 11.7729 12.2729 12.182C11.8637 12.14 11.4551 12.098 11.0381 12.056C11.0876 12.4385 11.0876 12.8245 11.0381 13.2069C11.4551 13.1649 11.8637 13.1229 12.2729 13.0809C12.2308 13.4901 12.1888 13.8987 12.1469 14.3157C12.5293 14.2662 12.9153 14.2662 13.2977 14.3157C13.2558 13.8986 13.2137 13.49 13.1717 13.0809C13.5809 13.1229 13.9895 13.1649 14.4065 13.2069C14.357 12.8245 14.357 12.4385 14.4065 12.056Z" fill="#FF4B55"/>
</g>
<defs>
<clipPath id="clip0_18464_76832">
<rect width="16" height="16" fill="white"/>
</clipPath>
</defs>
</svg>
