<svg width="16" height="16" viewBox="0 0 16 16" fill="none" xmlns="http://www.w3.org/2000/svg">
<g clip-path="url(#clip0_18464_76655)">
<path d="M12.5 0H3.5C1.567 0 0 1.567 0 3.5V12.5C0 14.433 1.567 16 3.5 16H12.5C14.433 16 16 14.433 16 12.5V3.5C16 1.567 14.433 0 12.5 0Z" fill="#FF4B55"/>
<path d="M16 6.62069H7.17241V0H4.41378V6.62069H0V9.37931H4.41378V16H7.17241V9.37931H16V6.62069Z" fill="#F5F5F5"/>
<path d="M16 7.17241H6.62069V0H4.96553V7.17241H0V8.82759H4.96553V16H6.62069V8.82759H16V7.17241Z" fill="#41479B"/>
</g>
<defs>
<clipPath id="clip0_18464_76655">
<rect width="16" height="16" fill="white"/>
</clipPath>
</defs>
</svg>
