<svg width="16" height="16" viewBox="0 0 16 16" fill="none" xmlns="http://www.w3.org/2000/svg">
<path d="M7.76298 1.78945C7.8625 1.59766 8.13685 1.59767 8.23637 1.78946L9.9563 5.10396C9.99497 5.17849 10.0665 5.23045 10.1493 5.2442L13.8331 5.85571C14.0462 5.89109 14.131 6.15202 13.9794 6.30593L11.3586 8.96592C11.2997 9.02573 11.2723 9.10981 11.2849 9.19284L11.8416 12.8853C11.8738 13.0989 11.6519 13.2602 11.4586 13.1635L8.11897 11.493C8.04388 11.4554 7.95547 11.4554 7.88038 11.493L4.54071 13.1635C4.34747 13.2602 4.12551 13.0989 4.15773 12.8853L4.71449 9.19284C4.72701 9.10981 4.69969 9.02573 4.64076 8.96592L2.01997 6.30593C1.86832 6.15202 1.9531 5.89109 2.16626 5.85571L5.85002 5.2442C5.93286 5.23045 6.00438 5.17849 6.04305 5.10396L7.76298 1.78945Z" fill="#E0B531"/>
</svg>
