<svg width="16" height="16" viewBox="0 0 16 16" fill="none" xmlns="http://www.w3.org/2000/svg">
<g clip-path="url(#clip0_837_35655)">
<path d="M12.5 0H3.5C1.567 0 0 1.567 0 3.5V5.33334H16V3.5C16 1.567 14.433 0 12.5 0Z" fill="#82AFFF"/>
<path d="M0 12.5C0 14.433 1.567 16 3.5 16H12.5C14.433 16 16 14.433 16 12.5V10.6666H0V12.5Z" fill="#73AF00"/>
<path d="M16 5.3335H0V10.6669H16V5.3335Z" fill="#F5F5F5"/>
<path d="M16 4.85974H0V5.52477H16V4.85974Z" fill="#FF4B55"/>
<path d="M16 10.4753H0V11.1404H16V10.4753Z" fill="#FF4B55"/>
<path d="M3.78743 3.99677C2.92543 3.99677 2.22675 3.29971 2.22675 2.4408C2.22675 1.57874 2.92543 0.878586 3.78743 0.878586C3.79071 0.878586 3.794 0.878617 3.79728 0.878649C3.848 0.879336 3.86581 0.811899 3.82109 0.78793C3.55565 0.64568 3.25271 0.565149 2.93065 0.56743C1.89925 0.574805 1.06146 1.42949 1.07237 2.46087C1.08318 3.48165 1.91768 4.3079 2.94409 4.3079C3.26175 4.3079 3.5604 4.22755 3.8225 4.08724C3.86709 4.06337 3.84906 3.9959 3.7985 3.99668C3.79481 3.99674 3.79112 3.99677 3.78743 3.99677Z" fill="#F5F5F5"/>
<path d="M5.00997 3.56644L4.94025 3.77544L4.71994 3.77716C4.69141 3.77738 4.6796 3.81378 4.70253 3.83072L4.87978 3.9616L4.81332 4.17166C4.80472 4.19885 4.83569 4.22135 4.85888 4.20475L5.03813 4.07663L5.21738 4.20475C5.2406 4.22135 5.27157 4.19885 5.26294 4.17166L5.19647 3.9616L5.37369 3.83072C5.39663 3.81378 5.38482 3.77738 5.35628 3.77716L5.13597 3.77544L5.06625 3.56644C5.05728 3.53938 5.019 3.53938 5.00997 3.56644Z" fill="#F5F5F5"/>
<path d="M6.22576 3.56644L6.15607 3.77544L5.93576 3.77716C5.90723 3.77738 5.89542 3.81378 5.91835 3.83072L6.0956 3.9616L6.02914 4.17166C6.02054 4.19885 6.05148 4.22135 6.0747 4.20475L6.25395 4.07663L6.4332 4.20475C6.45642 4.22135 6.48739 4.19885 6.47876 4.17166L6.41229 3.9616L6.58954 3.83072C6.61248 3.81378 6.60067 3.77738 6.57214 3.77716L6.35182 3.77544L6.2821 3.56644C6.27307 3.53938 6.23479 3.53938 6.22576 3.56644Z" fill="#F5F5F5"/>
<path d="M8.69451 3.56644L8.62482 3.77544L8.40451 3.77716C8.37598 3.77738 8.36417 3.81378 8.3871 3.83072L8.56435 3.9616L8.49789 4.17166C8.48929 4.19885 8.52023 4.22135 8.54345 4.20475L8.7227 4.07663L8.90195 4.20475C8.92517 4.22135 8.9561 4.19885 8.94751 4.17166L8.88104 3.9616L9.05829 3.83072C9.08123 3.81378 9.06942 3.77738 9.04089 3.77716L8.82057 3.77544L8.75085 3.56644C8.74182 3.53938 8.70354 3.53938 8.69451 3.56644Z" fill="#F5F5F5"/>
<path d="M9.90548 3.56644L9.83576 3.77544L9.61545 3.77716C9.58692 3.77738 9.5751 3.81378 9.59804 3.83072L9.77529 3.9616L9.70882 4.17166C9.70023 4.19885 9.7312 4.22135 9.75439 4.20475L9.93364 4.07663L10.1129 4.20475C10.1361 4.22135 10.167 4.19885 10.1584 4.17166L10.092 3.9616L10.2692 3.83072C10.2922 3.81378 10.2804 3.77738 10.2518 3.77716L10.0315 3.77544L9.96179 3.56644C9.95276 3.53938 9.91448 3.53938 9.90548 3.56644Z" fill="#F5F5F5"/>
<path d="M6.22576 2.1177L6.15607 2.32671L5.93576 2.32842C5.90723 2.32864 5.89542 2.36505 5.91835 2.38199L6.0956 2.51286L6.02914 2.72292C6.02054 2.75011 6.05148 2.77261 6.0747 2.75605L6.25395 2.62792L6.4332 2.75605C6.45642 2.77264 6.48739 2.75014 6.47876 2.72296L6.41229 2.51289L6.58954 2.38202C6.61248 2.36508 6.60067 2.32867 6.57214 2.32846L6.35182 2.32674L6.2821 2.11774C6.27307 2.09064 6.23479 2.09064 6.22576 2.1177Z" fill="#F5F5F5"/>
<path d="M7.46798 2.1177L7.39826 2.32671L7.17795 2.32842C7.14942 2.32864 7.1376 2.36505 7.16054 2.38199L7.33779 2.51286L7.27132 2.72292C7.26273 2.75011 7.29367 2.77261 7.31689 2.75605L7.49614 2.62792L7.67539 2.75605C7.69861 2.77264 7.72957 2.75014 7.72095 2.72296L7.65448 2.51289L7.83173 2.38202C7.85467 2.36508 7.84286 2.32867 7.81432 2.32846L7.59401 2.32674L7.52429 2.11774C7.51526 2.09064 7.47698 2.09064 7.46798 2.1177Z" fill="#F5F5F5"/>
<path d="M8.69451 2.1177L8.62482 2.32671L8.40451 2.32842C8.37598 2.32864 8.36417 2.36505 8.3871 2.38199L8.56435 2.51286L8.49789 2.72292C8.48929 2.75011 8.52023 2.77261 8.54345 2.75605L8.7227 2.62792L8.90195 2.75605C8.92517 2.77264 8.9561 2.75014 8.94751 2.72296L8.88104 2.51289L9.05829 2.38202C9.08123 2.36508 9.06942 2.32867 9.04089 2.32846L8.82057 2.32674L8.75085 2.11774C8.74182 2.09064 8.70354 2.09064 8.69451 2.1177Z" fill="#F5F5F5"/>
<path d="M9.90548 2.1177L9.83576 2.32671L9.61545 2.32842C9.58692 2.32864 9.5751 2.36505 9.59804 2.38199L9.77529 2.51286L9.70882 2.72292C9.70023 2.75011 9.7312 2.77261 9.75439 2.75605L9.93364 2.62792L10.1129 2.75605C10.1361 2.77264 10.167 2.75014 10.1584 2.72296L10.092 2.51289L10.2692 2.38202C10.2922 2.36508 10.2804 2.32867 10.2518 2.32846L10.0315 2.32674L9.96179 2.11774C9.95276 2.09064 9.91448 2.09064 9.90548 2.1177Z" fill="#F5F5F5"/>
<path d="M7.46798 3.56644L7.39826 3.77544L7.17795 3.77716C7.14942 3.77738 7.1376 3.81378 7.16054 3.83072L7.33779 3.9616L7.27132 4.17166C7.26273 4.19885 7.29367 4.22135 7.31689 4.20475L7.49614 4.07663L7.67539 4.20475C7.69861 4.22135 7.72957 4.19885 7.72095 4.17166L7.65448 3.9616L7.83173 3.83072C7.85467 3.81378 7.84286 3.77738 7.81432 3.77716L7.59401 3.77544L7.52429 3.56644C7.51526 3.53938 7.47698 3.53938 7.46798 3.56644Z" fill="#F5F5F5"/>
<path d="M7.46798 0.669101L7.39826 0.878101L7.17795 0.879819C7.14942 0.880038 7.1376 0.916444 7.16054 0.933382L7.33779 1.06426L7.27132 1.27432C7.26273 1.30151 7.29367 1.32401 7.31689 1.30741L7.49614 1.17929L7.67539 1.30741C7.69861 1.32401 7.72957 1.30151 7.72095 1.27432L7.65448 1.06426L7.83173 0.933382C7.85467 0.916444 7.84286 0.880038 7.81432 0.879819L7.59401 0.878101L7.52429 0.669101C7.51526 0.642038 7.47698 0.642038 7.46798 0.669101Z" fill="#F5F5F5"/>
<path d="M8.69451 3.56644L8.62482 3.77544L8.40451 3.77716C8.37598 3.77738 8.36417 3.81378 8.3871 3.83072L8.56435 3.9616L8.49789 4.17166C8.48929 4.19885 8.52023 4.22135 8.54345 4.20475L8.7227 4.07663L8.90195 4.20475C8.92517 4.22135 8.9561 4.19885 8.94751 4.17166L8.88104 3.9616L9.05829 3.83072C9.08123 3.81378 9.06942 3.77738 9.04089 3.77716L8.82057 3.77544L8.75085 3.56644C8.74182 3.53938 8.70354 3.53938 8.69451 3.56644Z" fill="#F5F5F5"/>
<path d="M9.90548 3.56644L9.83576 3.77544L9.61545 3.77716C9.58692 3.77738 9.5751 3.81378 9.59804 3.83072L9.77529 3.9616L9.70882 4.17166C9.70023 4.19885 9.7312 4.22135 9.75439 4.20475L9.93364 4.07663L10.1129 4.20475C10.1361 4.22135 10.167 4.19885 10.1584 4.17166L10.092 3.9616L10.2692 3.83072C10.2922 3.81378 10.2804 3.77738 10.2518 3.77716L10.0315 3.77544L9.96179 3.56644C9.95276 3.53938 9.91448 3.53938 9.90548 3.56644Z" fill="#F5F5F5"/>
<path d="M8.69451 0.669101L8.62482 0.878101L8.40451 0.879819C8.37598 0.880038 8.36417 0.916444 8.3871 0.933382L8.56435 1.06426L8.49789 1.27432C8.48929 1.30151 8.52023 1.32401 8.54345 1.30741L8.7227 1.17929L8.90195 1.30741C8.92517 1.32401 8.9561 1.30151 8.94751 1.27432L8.88104 1.06426L9.05829 0.933382C9.08123 0.916444 9.06942 0.880038 9.04089 0.879819L8.82057 0.878101L8.75085 0.669101C8.74182 0.642038 8.70354 0.642038 8.69451 0.669101Z" fill="#F5F5F5"/>
<path d="M9.90548 0.669101L9.83576 0.878101L9.61545 0.879819C9.58692 0.880038 9.5751 0.916444 9.59804 0.933382L9.77529 1.06426L9.70882 1.27432C9.70023 1.30151 9.7312 1.32401 9.75439 1.30741L9.93364 1.17929L10.1129 1.30741C10.1361 1.32401 10.167 1.30151 10.1584 1.27432L10.092 1.06426L10.2692 0.933382C10.2922 0.916444 10.2804 0.880038 10.2518 0.879819L10.0315 0.878101L9.96179 0.669101C9.95276 0.642038 9.91448 0.642038 9.90548 0.669101Z" fill="#F5F5F5"/>
</g>
<defs>
<clipPath id="clip0_837_35655">
<rect width="16" height="16" fill="white"/>
</clipPath>
</defs>
</svg>
