<svg width="16" height="16" viewBox="0 0 16 16" fill="none" xmlns="http://www.w3.org/2000/svg">
<g clip-path="url(#clip0_18464_167435)">
<path d="M12.5 0H3.5C1.567 0 0 1.567 0 3.5V5.33334H16V3.5C16 1.567 14.433 0 12.5 0Z" fill="#73AF00"/>
<path d="M0 12.5001C0 14.4331 1.567 16.0001 3.5 16.0001H12.5C14.433 16.0001 16 14.4331 16 12.5001V10.6667H0V12.5001Z" fill="#FF4B55"/>
<path d="M16 5.3335H0V10.6669H16V5.3335Z" fill="#F5F5F5"/>
<path d="M4.34334 7.6336L0.755531 1.32788C0.282562 1.92469 0 2.67932 0 3.49997V12.5C0 13.3206 0.282562 14.0753 0.755531 14.6721L4.34331 8.36635C4.46556 8.15154 4.46556 7.84841 4.34334 7.6336Z" fill="#4173CD"/>
<path d="M7.89902 8.37656C7.89902 8.38687 7.89568 9.37668 7.64252 9.86359H8.35381C8.10065 9.37668 8.0973 8.38684 8.0973 8.37656C8.0973 8.0355 8.45077 7.7645 8.45434 7.76181L8.33521 7.60334C8.32593 7.61031 8.20815 7.70059 8.0973 7.84731V7.5835H7.89902V7.84731C7.78815 7.70059 7.6704 7.61031 7.66112 7.60334L7.54199 7.76181C7.54555 7.7645 7.89902 8.0355 7.89902 8.37656Z" fill="#B46446"/>
<path d="M8.98959 7.18709C8.98353 7.18709 8.97794 7.18869 8.97197 7.18906C8.93156 7.07281 8.82219 6.98884 8.69216 6.98884C8.64528 6.98884 8.60153 7.00066 8.56209 7.01997C8.52012 6.94275 8.43925 6.88969 8.34519 6.88969C8.31816 6.88969 8.29259 6.89509 8.26825 6.90309C8.21553 6.77869 8.09228 6.69141 7.94866 6.69141C7.77216 6.69141 7.628 6.82372 7.60612 6.99425C7.58841 6.99147 7.57062 6.98881 7.55209 6.98881C7.36047 6.98881 7.20512 7.14416 7.20512 7.33578C7.20512 7.35831 7.20766 7.38019 7.21175 7.4015C7.12397 7.43041 7.05488 7.49828 7.02453 7.58541C7.01863 7.58488 7.01291 7.58363 7.00688 7.58363C6.89738 7.58363 6.80859 7.67238 6.80859 7.78191C6.80859 7.89141 6.89738 7.98019 7.00688 7.98019C7.05747 7.98019 7.10313 7.96066 7.13816 7.92947C7.18559 7.96147 7.24275 7.98019 7.30428 7.98019C7.35872 7.98019 7.40909 7.96447 7.45297 7.93894C7.49687 7.9645 7.54722 7.98019 7.60169 7.98019C7.76594 7.98019 7.89909 7.84703 7.89909 7.68278C7.89909 7.67022 7.89691 7.65825 7.89541 7.64609C7.94159 7.66884 7.99284 7.68278 8.04781 7.68278C8.11675 7.68278 8.18062 7.66209 8.23462 7.62744C8.28528 7.71913 8.38178 7.78194 8.49394 7.78194C8.51806 7.78194 8.54119 7.77828 8.56363 7.77284C8.61819 7.83844 8.69937 7.88106 8.79134 7.88106C8.88019 7.88106 8.95906 7.84131 9.01356 7.7795C9.16641 7.76713 9.28703 7.64056 9.28703 7.4845C9.287 7.32025 9.15384 7.18709 8.98959 7.18709Z" fill="#73AF00"/>
<path d="M8.69204 7.43489C8.69204 7.42457 8.6942 7.41486 8.69507 7.40476C8.64204 7.45382 8.5717 7.48445 8.49376 7.48445C8.3902 7.48445 8.29916 7.43139 8.24591 7.35107C8.19266 7.43139 8.10166 7.48445 7.99807 7.48445C7.91845 7.48445 7.84651 7.45273 7.79313 7.40176C7.76226 7.56176 7.62182 7.6827 7.45282 7.6827C7.43566 7.6827 7.41923 7.68004 7.40276 7.67767C7.40279 7.67939 7.40326 7.68098 7.40326 7.6827C7.40326 7.81232 7.31982 7.92145 7.2041 7.96217C7.23545 7.97339 7.26891 7.98011 7.3041 7.98011C7.35854 7.98011 7.40891 7.96439 7.45279 7.93886C7.4967 7.96442 7.54704 7.98011 7.60151 7.98011C7.76576 7.98011 7.89891 7.84695 7.89891 7.6827C7.89891 7.67014 7.89673 7.65817 7.89523 7.64601C7.94141 7.66876 7.99266 7.6827 8.04763 7.6827C8.11657 7.6827 8.18045 7.66201 8.23445 7.62736C8.2851 7.71904 8.3816 7.78186 8.49376 7.78186C8.51788 7.78186 8.54101 7.7782 8.56345 7.77276C8.61801 7.83836 8.6992 7.88098 8.79116 7.88098C8.88001 7.88098 8.95888 7.84123 9.01338 7.77942L9.01401 7.77929C8.83426 7.76629 8.69204 7.61792 8.69204 7.43489Z" fill="#5FA000"/>
<path d="M7.99785 10.4955C7.98191 10.4955 7.96779 10.4854 7.9626 10.4703C7.95882 10.4592 7.86551 10.1982 7.50216 10.1982H7.00648C6.71266 10.1982 6.47363 9.95919 6.47363 9.66538V6.39388C6.47363 6.37335 6.49029 6.35669 6.51082 6.35669H9.58404C9.60457 6.35669 9.62123 6.37335 9.62123 6.39388V9.66538C9.62123 9.95919 9.3822 10.1982 9.08838 10.1982H8.49357C8.12804 10.1982 8.03404 10.4675 8.03316 10.4702C8.02807 10.4853 8.01395 10.4955 7.99798 10.4955H7.99785ZM6.54801 6.43103V9.66535C6.54801 9.91813 6.7537 10.1238 7.00651 10.1238H7.5022C7.79645 10.1238 7.93888 10.2818 7.99788 10.3768C8.05688 10.2818 8.19929 10.1238 8.49357 10.1238H9.08838C9.3412 10.1238 9.54688 9.91813 9.54688 9.66535V6.43103H6.54801Z" fill="#464655"/>
<path d="M7.61758 5.51001L7.71173 5.66082L7.88942 5.66698L7.80592 5.82395L7.88942 5.98092L7.71173 5.98707L7.61758 6.13789L7.52339 5.98707L7.3457 5.98092L7.4292 5.82395L7.3457 5.66698L7.52339 5.66082L7.61758 5.51001Z" fill="#FFE15A"/>
<path d="M6.78042 5.64673L6.90723 5.77139L7.08145 5.73585L7.03692 5.90798L7.15477 6.0411L6.98345 6.0886L6.92711 6.25723L6.8003 6.1326L6.62608 6.1681L6.67061 5.99598L6.55273 5.86285L6.72408 5.81538L6.78042 5.64673Z" fill="#FFE15A"/>
<path d="M5.97644 5.88452L6.12716 5.97883L6.28959 5.90655L6.28325 6.08424L6.42706 6.18877L6.27003 6.27212L6.25141 6.44896L6.10069 6.35462L5.93825 6.42693L5.94459 6.24924L5.80078 6.14471L5.95781 6.06133L5.97644 5.88452Z" fill="#FFE15A"/>
<path d="M8.38223 5.51001L8.28807 5.66082L8.11035 5.66698L8.19388 5.82395L8.11035 5.98092L8.28807 5.98707L8.38223 6.13789L8.47641 5.98707L8.6541 5.98092L8.5706 5.82395L8.6541 5.66698L8.47641 5.66082L8.38223 5.51001Z" fill="#FFE15A"/>
<path d="M9.22005 5.64673L9.09327 5.77139L8.91905 5.73585L8.96358 5.90798L8.8457 6.0411L9.01705 6.0886L9.07339 6.25723L9.2002 6.1326L9.37442 6.1681L9.32989 5.99598L9.44777 5.86285L9.27642 5.81538L9.22005 5.64673Z" fill="#FFE15A"/>
<path d="M10.0229 5.88452L9.87223 5.97883L9.70977 5.90655L9.71611 6.08424L9.57227 6.18877L9.72933 6.27212L9.74795 6.44896L9.89864 6.35462L10.0611 6.42693L10.0548 6.24924L10.1986 6.14471L10.0415 6.06133L10.0229 5.88452Z" fill="#FFE15A"/>
</g>
<defs>
<clipPath id="clip0_18464_167435">
<rect width="16" height="16" fill="white"/>
</clipPath>
</defs>
</svg>
